<?xml version="1.0" encoding="UTF-8" standalone="no"?>
<!DOCTYPE svg PUBLIC "-//W3C//DTD SVG 1.1//EN"
 "http://www.w3.org/Graphics/SVG/1.1/DTD/svg11.dtd">
<!-- Generated by graphviz version 2.40.1 (20161225.0304)
 -->
<!-- Title: %3 Pages: 1 -->
<svg width="1393pt" height="1098pt"
 viewBox="0.00 0.00 1393.21 1097.62" xmlns="http://www.w3.org/2000/svg" xmlns:xlink="http://www.w3.org/1999/xlink">
<g id="graph0" class="graph" transform="scale(1 1) rotate(0) translate(4 1093.617)">
<title>%3</title>
<polygon fill="#ffffff" stroke="transparent" points="-4,4 -4,-1093.617 1389.2078,-1093.617 1389.2078,4 -4,4"/>
<!-- Approve patches for release -->
<g id="node1" class="node">
<title>Approve patches for release</title>
<ellipse fill="none" stroke="#000000" cx="503.7826" cy="-999.617" rx="109.1121" ry="18"/>
<text text-anchor="middle" x="503.7826" y="-995.417" font-family="Times,serif" font-size="14.00" fill="#000000">Approve patches for release</text>
</g>
<!-- CI creates en&#45;US builds -->
<g id="node2" class="node">
<title>CI creates en&#45;US builds</title>
<polygon fill="none" stroke="#000000" points="609.6385,-945.617 459.9267,-945.617 459.9267,-909.617 609.6385,-909.617 609.6385,-945.617"/>
<text text-anchor="middle" x="534.7826" y="-923.417" font-family="Times,serif" font-size="14.00" fill="#000000">CI creates en&#45;US builds</text>
</g>
<!-- Approve patches for release&#45;&gt;CI creates en&#45;US builds -->
<g id="edge1" class="edge">
<title>Approve patches for release&#45;&gt;CI creates en&#45;US builds</title>
<path fill="none" stroke="#000000" d="M511.6052,-981.4484C514.9935,-973.5787 519.0367,-964.1882 522.7902,-955.4703"/>
<polygon fill="#000000" stroke="#000000" points="526.1147,-956.5992 526.8546,-946.0303 519.6853,-953.831 526.1147,-956.5992"/>
</g>
<!-- Release promotion starts -->
<g id="node6" class="node">
<title>Release promotion starts</title>
<polygon fill="none" stroke="#000000" points="685.1972,-873.617 530.368,-873.617 530.368,-837.617 685.1972,-837.617 685.1972,-873.617"/>
<text text-anchor="middle" x="607.7826" y="-851.417" font-family="Times,serif" font-size="14.00" fill="#000000">Release promotion starts</text>
</g>
<!-- CI creates en&#45;US builds&#45;&gt;Release promotion starts -->
<g id="edge2" class="edge">
<title>CI creates en&#45;US builds&#45;&gt;Release promotion starts</title>
<path fill="none" stroke="#000000" d="M553.2036,-909.4484C561.9355,-900.836 572.5143,-890.4021 582.0249,-881.0218"/>
<polygon fill="#000000" stroke="#000000" points="584.7056,-883.2939 589.3675,-873.7798 579.79,-878.3101 584.7056,-883.2939"/>
</g>
<!-- Configure ship&#45;it v1 -->
<g id="node3" class="node">
<title>Configure ship&#45;it v1</title>
<ellipse fill="none" stroke="#000000" cx="711.7826" cy="-1071.617" rx="81.1939" ry="18"/>
<text text-anchor="middle" x="711.7826" y="-1067.417" font-family="Times,serif" font-size="14.00" fill="#000000">Configure ship&#45;it v1</text>
</g>
<!-- RelMan review (??) -->
<g id="node4" class="node">
<title>RelMan review (??)</title>
<ellipse fill="none" stroke="#000000" cx="711.7826" cy="-999.617" rx="80.6404" ry="18"/>
<text text-anchor="middle" x="711.7826" y="-995.417" font-family="Times,serif" font-size="14.00" fill="#000000">RelMan review (??)</text>
</g>
<!-- Configure ship&#45;it v1&#45;&gt;RelMan review (??) -->
<g id="edge3" class="edge">
<title>Configure ship&#45;it v1&#45;&gt;RelMan review (??)</title>
<path fill="none" stroke="#000000" d="M711.7826,-1053.4484C711.7826,-1045.748 711.7826,-1036.5913 711.7826,-1028.0336"/>
<polygon fill="#000000" stroke="#000000" points="715.2827,-1028.0302 711.7826,-1018.0303 708.2827,-1028.0303 715.2827,-1028.0302"/>
</g>
<!-- Start release -->
<g id="node5" class="node">
<title>Start release</title>
<ellipse fill="none" stroke="#000000" cx="695.7826" cy="-927.617" rx="53.6284" ry="18"/>
<text text-anchor="middle" x="695.7826" y="-923.417" font-family="Times,serif" font-size="14.00" fill="#000000">Start release</text>
</g>
<!-- RelMan review (??)&#45;&gt;Start release -->
<g id="edge4" class="edge">
<title>RelMan review (??)&#45;&gt;Start release</title>
<path fill="none" stroke="#000000" d="M707.7451,-981.4484C706.0339,-973.748 703.9991,-964.5913 702.0974,-956.0336"/>
<polygon fill="#000000" stroke="#000000" points="705.4605,-955.0329 699.8744,-946.0303 698.6271,-956.5514 705.4605,-955.0329"/>
</g>
<!-- Start release&#45;&gt;Release promotion starts -->
<g id="edge5" class="edge">
<title>Start release&#45;&gt;Release promotion starts</title>
<path fill="none" stroke="#000000" d="M675.3724,-910.9178C664.2102,-901.785 650.1722,-890.2994 637.786,-880.1653"/>
<polygon fill="#000000" stroke="#000000" points="639.8878,-877.3627 629.9319,-873.7392 635.4551,-882.7804 639.8878,-877.3627"/>
</g>
<!-- Wait for blocking on human decision task -->
<g id="node7" class="node">
<title>Wait for blocking on human decision task</title>
<ellipse fill="none" stroke="#000000" cx="514.7826" cy="-783.617" rx="157.9856" ry="18"/>
<text text-anchor="middle" x="514.7826" y="-779.417" font-family="Times,serif" font-size="14.00" fill="#000000">Wait for blocking on human decision task</text>
</g>
<!-- Release promotion starts&#45;&gt;Wait for blocking on human decision task -->
<g id="edge6" class="edge">
<title>Release promotion starts&#45;&gt;Wait for blocking on human decision task</title>
<path fill="none" stroke="#000000" d="M584.3148,-837.4484C572.6616,-828.4266 558.4267,-817.406 545.8788,-807.6915"/>
<polygon fill="#000000" stroke="#000000" points="547.9706,-804.8846 537.9207,-801.5304 543.6854,-810.4197 547.9706,-804.8846"/>
</g>
<!-- Wait for all jobs green -->
<g id="node10" class="node">
<title>Wait for all jobs green</title>
<ellipse fill="none" stroke="#000000" cx="718.7826" cy="-711.617" rx="88.9279" ry="18"/>
<text text-anchor="middle" x="718.7826" y="-707.417" font-family="Times,serif" font-size="14.00" fill="#000000">Wait for all jobs green</text>
</g>
<!-- Release promotion starts&#45;&gt;Wait for all jobs green -->
<g id="edge7" class="edge">
<title>Release promotion starts&#45;&gt;Wait for all jobs green</title>
<path fill="none" stroke="#000000" d="M640.126,-837.6139C654.414,-828.3656 670.4935,-816.007 681.7826,-801.617 696.2116,-783.2245 705.8523,-758.42 711.6655,-739.509"/>
<polygon fill="#000000" stroke="#000000" points="715.0899,-740.2661 714.5073,-729.6873 708.3657,-738.3205 715.0899,-740.2661"/>
</g>
<!-- Notify release&#45;localtest ready -->
<g id="node8" class="node">
<title>Notify release&#45;localtest ready</title>
<ellipse fill="none" stroke="#000000" cx="497.7826" cy="-711.617" rx="114.4241" ry="18"/>
<text text-anchor="middle" x="497.7826" y="-707.417" font-family="Times,serif" font-size="14.00" fill="#000000">Notify release&#45;localtest ready</text>
</g>
<!-- Wait for blocking on human decision task&#45;&gt;Notify release&#45;localtest ready -->
<g id="edge8" class="edge">
<title>Wait for blocking on human decision task&#45;&gt;Notify release&#45;localtest ready</title>
<path fill="none" stroke="#000000" d="M510.4928,-765.4484C508.6746,-757.748 506.5126,-748.5913 504.4921,-740.0336"/>
<polygon fill="#000000" stroke="#000000" points="507.8345,-738.9584 502.1302,-730.0303 501.0218,-740.567 507.8345,-738.9584"/>
</g>
<!-- QA signoff builds and test channel -->
<g id="node9" class="node">
<title>QA signoff builds and test channel</title>
<ellipse fill="none" stroke="#000000" cx="527.7826" cy="-639.617" rx="132.5326" ry="18"/>
<text text-anchor="middle" x="527.7826" y="-635.417" font-family="Times,serif" font-size="14.00" fill="#000000">QA signoff builds and test channel</text>
</g>
<!-- Notify release&#45;localtest ready&#45;&gt;QA signoff builds and test channel -->
<g id="edge9" class="edge">
<title>Notify release&#45;localtest ready&#45;&gt;QA signoff builds and test channel</title>
<path fill="none" stroke="#000000" d="M505.3528,-693.4484C508.6319,-685.5787 512.5446,-676.1882 516.177,-667.4703"/>
<polygon fill="#000000" stroke="#000000" points="519.4949,-668.6072 520.1104,-658.0303 513.0334,-665.9149 519.4949,-668.6072"/>
</g>
<!-- Push to cdntest request -->
<g id="node11" class="node">
<title>Push to cdntest request</title>
<ellipse fill="none" stroke="#000000" cx="607.7826" cy="-567.617" rx="91.3161" ry="18"/>
<text text-anchor="middle" x="607.7826" y="-563.417" font-family="Times,serif" font-size="14.00" fill="#000000">Push to cdntest request</text>
</g>
<!-- QA signoff builds and test channel&#45;&gt;Push to cdntest request -->
<g id="edge10" class="edge">
<title>QA signoff builds and test channel&#45;&gt;Push to cdntest request</title>
<path fill="none" stroke="#000000" d="M547.97,-621.4484C557.8777,-612.5314 569.9551,-601.6617 580.6564,-592.0305"/>
<polygon fill="#000000" stroke="#000000" points="583.0632,-594.5733 588.1548,-585.282 578.3804,-589.3702 583.0632,-594.5733"/>
</g>
<!-- Wait for all jobs green&#45;&gt;Push to cdntest request -->
<g id="edge11" class="edge">
<title>Wait for all jobs green&#45;&gt;Push to cdntest request</title>
<path fill="none" stroke="#000000" d="M711.2682,-693.5674C702.8372,-674.5344 687.9358,-644.231 669.7826,-621.617 661.0243,-610.7065 649.8839,-600.2348 639.4694,-591.4651"/>
<polygon fill="#000000" stroke="#000000" points="641.6556,-588.7316 631.6984,-585.1117 637.2249,-594.1509 641.6556,-588.7316"/>
</g>
<!-- Push to cdntest -->
<g id="node12" class="node">
<title>Push to cdntest</title>
<polygon fill="none" stroke="#000000" points="658.0621,-513.617 557.503,-513.617 557.503,-477.617 658.0621,-477.617 658.0621,-513.617"/>
<text text-anchor="middle" x="607.7826" y="-491.417" font-family="Times,serif" font-size="14.00" fill="#000000">Push to cdntest</text>
</g>
<!-- Push to cdntest request&#45;&gt;Push to cdntest -->
<g id="edge12" class="edge">
<title>Push to cdntest request&#45;&gt;Push to cdntest</title>
<path fill="none" stroke="#000000" d="M607.7826,-549.4484C607.7826,-541.748 607.7826,-532.5913 607.7826,-524.0336"/>
<polygon fill="#000000" stroke="#000000" points="611.2827,-524.0302 607.7826,-514.0303 604.2827,-524.0303 611.2827,-524.0302"/>
</g>
<!-- Notify pushed to cdntest -->
<g id="node13" class="node">
<title>Notify pushed to cdntest</title>
<ellipse fill="none" stroke="#000000" cx="607.7826" cy="-423.617" rx="96.6202" ry="18"/>
<text text-anchor="middle" x="607.7826" y="-419.417" font-family="Times,serif" font-size="14.00" fill="#000000">Notify pushed to cdntest</text>
</g>
<!-- Push to cdntest&#45;&gt;Notify pushed to cdntest -->
<g id="edge13" class="edge">
<title>Push to cdntest&#45;&gt;Notify pushed to cdntest</title>
<path fill="none" stroke="#000000" d="M607.7826,-477.4484C607.7826,-469.748 607.7826,-460.5913 607.7826,-452.0336"/>
<polygon fill="#000000" stroke="#000000" points="611.2827,-452.0302 607.7826,-442.0303 604.2827,-452.0303 611.2827,-452.0302"/>
</g>
<!-- QA signoff release&#45;cdntest -->
<g id="node14" class="node">
<title>QA signoff release&#45;cdntest</title>
<ellipse fill="none" stroke="#000000" cx="607.7826" cy="-351.617" rx="104.0092" ry="18"/>
<text text-anchor="middle" x="607.7826" y="-347.417" font-family="Times,serif" font-size="14.00" fill="#000000">QA signoff release&#45;cdntest</text>
</g>
<!-- Notify pushed to cdntest&#45;&gt;QA signoff release&#45;cdntest -->
<g id="edge14" class="edge">
<title>Notify pushed to cdntest&#45;&gt;QA signoff release&#45;cdntest</title>
<path fill="none" stroke="#000000" d="M607.7826,-405.4484C607.7826,-397.748 607.7826,-388.5913 607.7826,-380.0336"/>
<polygon fill="#000000" stroke="#000000" points="611.2827,-380.0302 607.7826,-370.0303 604.2827,-380.0303 611.2827,-380.0302"/>
</g>
<!-- Request push to release channel -->
<g id="node15" class="node">
<title>Request push to release channel</title>
<ellipse fill="none" stroke="#000000" cx="607.7826" cy="-279.617" rx="123.1366" ry="18"/>
<text text-anchor="middle" x="607.7826" y="-275.417" font-family="Times,serif" font-size="14.00" fill="#000000">Request push to release channel</text>
</g>
<!-- QA signoff release&#45;cdntest&#45;&gt;Request push to release channel -->
<g id="edge15" class="edge">
<title>QA signoff release&#45;cdntest&#45;&gt;Request push to release channel</title>
<path fill="none" stroke="#000000" d="M607.7826,-333.4484C607.7826,-325.748 607.7826,-316.5913 607.7826,-308.0336"/>
<polygon fill="#000000" stroke="#000000" points="611.2827,-308.0302 607.7826,-298.0303 604.2827,-308.0303 611.2827,-308.0302"/>
</g>
<!-- Push to release channel -->
<g id="node16" class="node">
<title>Push to release channel</title>
<polygon fill="none" stroke="#000000" points="681.2933,-225.617 534.2718,-225.617 534.2718,-189.617 681.2933,-189.617 681.2933,-225.617"/>
<text text-anchor="middle" x="607.7826" y="-203.417" font-family="Times,serif" font-size="14.00" fill="#000000">Push to release channel</text>
</g>
<!-- Request push to release channel&#45;&gt;Push to release channel -->
<g id="edge16" class="edge">
<title>Request push to release channel&#45;&gt;Push to release channel</title>
<path fill="none" stroke="#000000" d="M607.7826,-261.4484C607.7826,-253.748 607.7826,-244.5913 607.7826,-236.0336"/>
<polygon fill="#000000" stroke="#000000" points="611.2827,-236.0302 607.7826,-226.0303 604.2827,-236.0303 611.2827,-236.0302"/>
</g>
<!-- QA signoff for release -->
<g id="node17" class="node">
<title>QA signoff for release</title>
<ellipse fill="none" stroke="#000000" cx="88.7826" cy="-135.617" rx="88.5657" ry="18"/>
<text text-anchor="middle" x="88.7826" y="-131.417" font-family="Times,serif" font-size="14.00" fill="#000000">QA signoff for release</text>
</g>
<!-- Push to release channel&#45;&gt;QA signoff for release -->
<g id="edge17" class="edge">
<title>Push to release channel&#45;&gt;QA signoff for release</title>
<path fill="none" stroke="#000000" d="M534.0396,-199.453C449.6717,-189.8177 307.4626,-172.6767 185.7826,-153.617 178.429,-152.4652 170.7769,-151.1857 163.1394,-149.8551"/>
<polygon fill="#000000" stroke="#000000" points="163.5911,-146.3807 153.1339,-148.0829 162.3702,-153.2734 163.5911,-146.3807"/>
</g>
<!-- Verify download pages -->
<g id="node18" class="node">
<title>Verify download pages</title>
<ellipse fill="none" stroke="#000000" cx="286.7826" cy="-135.617" rx="91.7825" ry="18"/>
<text text-anchor="middle" x="286.7826" y="-131.417" font-family="Times,serif" font-size="14.00" fill="#000000">Verify download pages</text>
</g>
<!-- Push to release channel&#45;&gt;Verify download pages -->
<g id="edge18" class="edge">
<title>Push to release channel&#45;&gt;Verify download pages</title>
<path fill="none" stroke="#000000" d="M534.1387,-191.0987C480.9281,-179.1637 409.4911,-163.1404 357.0695,-151.3823"/>
<polygon fill="#000000" stroke="#000000" points="357.7044,-147.9378 347.1808,-149.1643 356.1724,-154.7681 357.7044,-147.9378"/>
</g>
<!-- Push release notes live -->
<g id="node19" class="node">
<title>Push release notes live</title>
<ellipse fill="none" stroke="#000000" cx="486.7826" cy="-135.617" rx="90.3297" ry="18"/>
<text text-anchor="middle" x="486.7826" y="-131.417" font-family="Times,serif" font-size="14.00" fill="#000000">Push release notes live</text>
</g>
<!-- Push to release channel&#45;&gt;Push release notes live -->
<g id="edge19" class="edge">
<title>Push to release channel&#45;&gt;Push release notes live</title>
<path fill="none" stroke="#000000" d="M577.2492,-189.4484C561.1523,-179.87 541.269,-168.0387 524.2461,-157.9093"/>
<polygon fill="#000000" stroke="#000000" points="526.0236,-154.8943 515.6402,-152.7885 522.4441,-160.9099 526.0236,-154.8943"/>
</g>
<!-- Notify communications we are live -->
<g id="node20" class="node">
<title>Notify communications we are live</title>
<ellipse fill="none" stroke="#000000" cx="729.7826" cy="-135.617" rx="134.7222" ry="18"/>
<text text-anchor="middle" x="729.7826" y="-131.417" font-family="Times,serif" font-size="14.00" fill="#000000">Notify communications we are live</text>
</g>
<!-- Push to release channel&#45;&gt;Notify communications we are live -->
<g id="edge20" class="edge">
<title>Push to release channel&#45;&gt;Notify communications we are live</title>
<path fill="none" stroke="#000000" d="M638.5683,-189.4484C654.4111,-180.0985 673.8916,-168.6018 690.7764,-158.6371"/>
<polygon fill="#000000" stroke="#000000" points="693.017,-161.3788 699.8502,-153.282 689.4592,-155.3504 693.017,-161.3788"/>
</g>
<!-- Notify security to publish advisories -->
<g id="node21" class="node">
<title>Notify security to publish advisories</title>
<ellipse fill="none" stroke="#000000" cx="1021.7826" cy="-135.617" rx="138.6244" ry="18"/>
<text text-anchor="middle" x="1021.7826" y="-131.417" font-family="Times,serif" font-size="14.00" fill="#000000">Notify security to publish advisories</text>
</g>
<!-- Push to release channel&#45;&gt;Notify security to publish advisories -->
<g id="edge21" class="edge">
<title>Push to release channel&#45;&gt;Notify security to publish advisories</title>
<path fill="none" stroke="#000000" d="M681.3204,-194.8278C750.3674,-182.8196 853.9508,-164.8051 928.7233,-151.8012"/>
<polygon fill="#000000" stroke="#000000" points="929.3623,-155.2427 938.6147,-150.081 928.1628,-148.3462 929.3623,-155.2427"/>
</g>
<!-- Send announcement email -->
<g id="node22" class="node">
<title>Send announcement email</title>
<ellipse fill="none" stroke="#000000" cx="1281.7826" cy="-135.617" rx="103.3506" ry="18"/>
<text text-anchor="middle" x="1281.7826" y="-131.417" font-family="Times,serif" font-size="14.00" fill="#000000">Send announcement email</text>
</g>
<!-- Push to release channel&#45;&gt;Send announcement email -->
<g id="edge22" class="edge">
<title>Push to release channel&#45;&gt;Send announcement email</title>
<path fill="none" stroke="#000000" d="M681.5943,-202.0294C789.1804,-193.544 995.2686,-176.0016 1169.7826,-153.617 1178.8201,-152.4578 1188.2491,-151.1297 1197.6328,-149.7315"/>
<polygon fill="#000000" stroke="#000000" points="1198.4154,-153.1529 1207.7769,-148.1916 1197.3648,-146.2322 1198.4154,-153.1529"/>
</g>
<!-- All done -->
<g id="node23" class="node">
<title>All done</title>
<ellipse fill="none" stroke="#000000" cx="607.7826" cy="-40.8085" rx="40.6179" ry="40.6179"/>
<text text-anchor="middle" x="607.7826" y="-36.6085" font-family="Times,serif" font-size="14.00" fill="#000000">All done</text>
</g>
<!-- QA signoff for release&#45;&gt;All done -->
<g id="edge23" class="edge">
<title>QA signoff for release&#45;&gt;All done</title>
<path fill="none" stroke="#000000" d="M154.2595,-123.4349C164.7989,-121.4832 175.591,-119.4901 185.7826,-117.617 319.8369,-92.9794 477.9203,-64.309 557.1466,-49.9667"/>
<polygon fill="#000000" stroke="#000000" points="558.115,-53.3484 567.3317,-48.1232 556.8682,-46.4603 558.115,-53.3484"/>
</g>
<!-- Verify download pages&#45;&gt;All done -->
<g id="edge24" class="edge">
<title>Verify download pages&#45;&gt;All done</title>
<path fill="none" stroke="#000000" d="M337.646,-120.5943C398.2669,-102.6897 498.8591,-72.9794 558.6892,-55.3084"/>
<polygon fill="#000000" stroke="#000000" points="559.6895,-58.6625 568.2885,-52.4732 557.7066,-51.9492 559.6895,-58.6625"/>
</g>
<!-- Push release notes live&#45;&gt;All done -->
<g id="edge25" class="edge">
<title>Push release notes live&#45;&gt;All done</title>
<path fill="none" stroke="#000000" d="M509.2582,-118.0064C525.5241,-105.2614 547.9569,-87.6844 567.3086,-72.5215"/>
<polygon fill="#000000" stroke="#000000" points="569.6738,-75.1148 575.3866,-66.1921 565.3564,-69.6047 569.6738,-75.1148"/>
</g>
<!-- Notify communications we are live&#45;&gt;All done -->
<g id="edge26" class="edge">
<title>Notify communications we are live&#45;&gt;All done</title>
<path fill="none" stroke="#000000" d="M706.8353,-117.7842C690.4075,-105.0179 667.8492,-87.4874 648.4095,-72.3804"/>
<polygon fill="#000000" stroke="#000000" points="650.3398,-69.4479 640.2961,-66.0753 646.0445,-74.9752 650.3398,-69.4479"/>
</g>
<!-- Notify security to publish advisories&#45;&gt;All done -->
<g id="edge27" class="edge">
<title>Notify security to publish advisories&#45;&gt;All done</title>
<path fill="none" stroke="#000000" d="M952.9542,-119.8549C869.6166,-100.7701 731.2905,-69.0926 657.5943,-52.2157"/>
<polygon fill="#000000" stroke="#000000" points="658.1658,-48.756 647.6368,-49.9354 656.6031,-55.5794 658.1658,-48.756"/>
</g>
<!-- Send announcement email&#45;&gt;All done -->
<g id="edge28" class="edge">
<title>Send announcement email&#45;&gt;All done</title>
<path fill="none" stroke="#000000" d="M1206.513,-123.271C1194.2443,-121.3303 1181.6653,-119.3836 1169.7826,-117.617 981.3943,-89.6091 756.8868,-60.0809 658.3611,-47.3156"/>
<polygon fill="#000000" stroke="#000000" points="658.7478,-43.8365 648.3813,-46.0241 657.8494,-50.7786 658.7478,-43.8365"/>
</g>
</g>
</svg>
