<?xml version="1.0" encoding="UTF-8" standalone="no"?>
<!DOCTYPE svg PUBLIC "-//W3C//DTD SVG 1.1//EN"
 "http://www.w3.org/Graphics/SVG/1.1/DTD/svg11.dtd">
<!-- Generated by graphviz version 2.40.1 (20161225.0304)
 -->
<!-- Title: %3 Pages: 1 -->
<svg width="387pt" height="738pt"
 viewBox="0.00 0.00 386.59 737.62" xmlns="http://www.w3.org/2000/svg" xmlns:xlink="http://www.w3.org/1999/xlink">
<g id="graph0" class="graph" transform="scale(1 1) rotate(0) translate(4 733.617)">
<title>%3</title>
<polygon fill="#ffffff" stroke="transparent" points="-4,4 -4,-733.617 382.5878,-733.617 382.5878,4 -4,4"/>
<!-- Approve patches for beta -->
<g id="node1" class="node">
<title>Approve patches for beta</title>
<ellipse fill="none" stroke="#000000" cx="99.241" cy="-639.617" rx="99.4826" ry="18"/>
<text text-anchor="middle" x="99.241" y="-635.417" font-family="Times,serif" font-size="14.00" fill="#000000">Approve patches for beta</text>
</g>
<!-- CI creates en&#45;US builds -->
<g id="node2" class="node">
<title>CI creates en&#45;US builds</title>
<polygon fill="none" stroke="#000000" points="200.0969,-585.617 50.3851,-585.617 50.3851,-549.617 200.0969,-549.617 200.0969,-585.617"/>
<text text-anchor="middle" x="125.241" y="-563.417" font-family="Times,serif" font-size="14.00" fill="#000000">CI creates en&#45;US builds</text>
</g>
<!-- Approve patches for beta&#45;&gt;CI creates en&#45;US builds -->
<g id="edge1" class="edge">
<title>Approve patches for beta&#45;&gt;CI creates en&#45;US builds</title>
<path fill="none" stroke="#000000" d="M105.8019,-621.4484C108.6437,-613.5787 112.0348,-604.1882 115.1829,-595.4703"/>
<polygon fill="#000000" stroke="#000000" points="118.4872,-596.6246 118.5918,-586.0303 111.9033,-594.247 118.4872,-596.6246"/>
</g>
<!-- Release promotion starts -->
<g id="node6" class="node">
<title>Release promotion starts</title>
<polygon fill="none" stroke="#000000" points="275.6556,-513.617 120.8264,-513.617 120.8264,-477.617 275.6556,-477.617 275.6556,-513.617"/>
<text text-anchor="middle" x="198.241" y="-491.417" font-family="Times,serif" font-size="14.00" fill="#000000">Release promotion starts</text>
</g>
<!-- CI creates en&#45;US builds&#45;&gt;Release promotion starts -->
<g id="edge2" class="edge">
<title>CI creates en&#45;US builds&#45;&gt;Release promotion starts</title>
<path fill="none" stroke="#000000" d="M143.662,-549.4484C152.394,-540.836 162.9728,-530.4021 172.4833,-521.0218"/>
<polygon fill="#000000" stroke="#000000" points="175.164,-523.2939 179.8259,-513.7798 170.2485,-518.3101 175.164,-523.2939"/>
</g>
<!-- Configure ship&#45;it v1 -->
<g id="node3" class="node">
<title>Configure ship&#45;it v1</title>
<ellipse fill="none" stroke="#000000" cx="297.241" cy="-711.617" rx="81.1939" ry="18"/>
<text text-anchor="middle" x="297.241" y="-707.417" font-family="Times,serif" font-size="14.00" fill="#000000">Configure ship&#45;it v1</text>
</g>
<!-- RelMan review (??) -->
<g id="node4" class="node">
<title>RelMan review (??)</title>
<ellipse fill="none" stroke="#000000" cx="297.241" cy="-639.617" rx="80.6404" ry="18"/>
<text text-anchor="middle" x="297.241" y="-635.417" font-family="Times,serif" font-size="14.00" fill="#000000">RelMan review (??)</text>
</g>
<!-- Configure ship&#45;it v1&#45;&gt;RelMan review (??) -->
<g id="edge3" class="edge">
<title>Configure ship&#45;it v1&#45;&gt;RelMan review (??)</title>
<path fill="none" stroke="#000000" d="M297.241,-693.4484C297.241,-685.748 297.241,-676.5913 297.241,-668.0336"/>
<polygon fill="#000000" stroke="#000000" points="300.7411,-668.0302 297.241,-658.0303 293.7411,-668.0303 300.7411,-668.0302"/>
</g>
<!-- Start release -->
<g id="node5" class="node">
<title>Start release</title>
<ellipse fill="none" stroke="#000000" cx="284.241" cy="-567.617" rx="53.6284" ry="18"/>
<text text-anchor="middle" x="284.241" y="-563.417" font-family="Times,serif" font-size="14.00" fill="#000000">Start release</text>
</g>
<!-- RelMan review (??)&#45;&gt;Start release -->
<g id="edge4" class="edge">
<title>RelMan review (??)&#45;&gt;Start release</title>
<path fill="none" stroke="#000000" d="M293.9606,-621.4484C292.5702,-613.748 290.9169,-604.5913 289.3718,-596.0336"/>
<polygon fill="#000000" stroke="#000000" points="292.7868,-595.2492 287.5656,-586.0303 285.8982,-596.4931 292.7868,-595.2492"/>
</g>
<!-- Start release&#45;&gt;Release promotion starts -->
<g id="edge5" class="edge">
<title>Start release&#45;&gt;Release promotion starts</title>
<path fill="none" stroke="#000000" d="M263.8602,-550.554C253.1251,-541.5665 239.7607,-530.3777 227.8995,-520.4474"/>
<polygon fill="#000000" stroke="#000000" points="229.8933,-517.5519 219.9789,-513.8162 225.3997,-522.9192 229.8933,-517.5519"/>
</g>
<!-- Wait for final verification -->
<g id="node7" class="node">
<title>Wait for final verification</title>
<polygon fill="none" stroke="#000000" points="223.807,-441.617 66.675,-441.617 66.675,-405.617 223.807,-405.617 223.807,-441.617"/>
<text text-anchor="middle" x="145.241" y="-419.417" font-family="Times,serif" font-size="14.00" fill="#000000">Wait for final verification</text>
</g>
<!-- Release promotion starts&#45;&gt;Wait for final verification -->
<g id="edge6" class="edge">
<title>Release promotion starts&#45;&gt;Wait for final verification</title>
<path fill="none" stroke="#000000" d="M184.8669,-477.4484C178.8248,-469.2402 171.5648,-459.3776 164.919,-450.3493"/>
<polygon fill="#000000" stroke="#000000" points="167.5421,-448.0088 158.7952,-442.0303 161.9048,-452.1585 167.5421,-448.0088"/>
</g>
<!-- Wait for all jobs green -->
<g id="node10" class="node">
<title>Wait for all jobs green</title>
<polygon fill="none" stroke="#000000" points="363.579,-369.617 222.903,-369.617 222.903,-333.617 363.579,-333.617 363.579,-369.617"/>
<text text-anchor="middle" x="293.241" y="-347.417" font-family="Times,serif" font-size="14.00" fill="#000000">Wait for all jobs green</text>
</g>
<!-- Release promotion starts&#45;&gt;Wait for all jobs green -->
<g id="edge7" class="edge">
<title>Release promotion starts&#45;&gt;Wait for all jobs green</title>
<path fill="none" stroke="#000000" d="M210.2728,-477.3793C226.8333,-452.277 256.7572,-406.9187 275.7801,-378.0841"/>
<polygon fill="#000000" stroke="#000000" points="278.7216,-379.9812 281.3069,-369.7066 272.8785,-376.1264 278.7216,-379.9812"/>
</g>
<!-- Notify beta&#45;cdntest ready -->
<g id="node8" class="node">
<title>Notify beta&#45;cdntest ready</title>
<ellipse fill="none" stroke="#000000" cx="105.241" cy="-351.617" rx="99.9588" ry="18"/>
<text text-anchor="middle" x="105.241" y="-347.417" font-family="Times,serif" font-size="14.00" fill="#000000">Notify beta&#45;cdntest ready</text>
</g>
<!-- Wait for final verification&#45;&gt;Notify beta&#45;cdntest ready -->
<g id="edge8" class="edge">
<title>Wait for final verification&#45;&gt;Notify beta&#45;cdntest ready</title>
<path fill="none" stroke="#000000" d="M135.1473,-405.4484C130.6126,-397.2858 125.1688,-387.487 120.1759,-378.4997"/>
<polygon fill="#000000" stroke="#000000" points="123.1089,-376.5722 115.1929,-369.5304 116.9898,-379.9718 123.1089,-376.5722"/>
</g>
<!-- QA signoff -->
<g id="node9" class="node">
<title>QA signoff</title>
<ellipse fill="none" stroke="#000000" cx="160.241" cy="-279.617" rx="49.5103" ry="18"/>
<text text-anchor="middle" x="160.241" y="-275.417" font-family="Times,serif" font-size="14.00" fill="#000000">QA signoff</text>
</g>
<!-- Notify beta&#45;cdntest ready&#45;&gt;QA signoff -->
<g id="edge9" class="edge">
<title>Notify beta&#45;cdntest ready&#45;&gt;QA signoff</title>
<path fill="none" stroke="#000000" d="M119.1198,-333.4484C125.6495,-324.9005 133.5498,-314.5582 140.6736,-305.2326"/>
<polygon fill="#000000" stroke="#000000" points="143.6467,-307.1061 146.9358,-297.0347 138.084,-302.8568 143.6467,-307.1061"/>
</g>
<!-- Push to beta channel -->
<g id="node11" class="node">
<title>Push to beta channel</title>
<polygon fill="none" stroke="#000000" points="265.2145,-225.617 133.2675,-225.617 133.2675,-189.617 265.2145,-189.617 265.2145,-225.617"/>
<text text-anchor="middle" x="199.241" y="-203.417" font-family="Times,serif" font-size="14.00" fill="#000000">Push to beta channel</text>
</g>
<!-- QA signoff&#45;&gt;Push to beta channel -->
<g id="edge10" class="edge">
<title>QA signoff&#45;&gt;Push to beta channel</title>
<path fill="none" stroke="#000000" d="M169.8815,-261.8192C174.3012,-253.6598 179.6379,-243.8074 184.5425,-234.7528"/>
<polygon fill="#000000" stroke="#000000" points="187.7552,-236.1701 189.4406,-225.7101 181.6002,-232.836 187.7552,-236.1701"/>
</g>
<!-- Wait for all jobs green&#45;&gt;Push to beta channel -->
<g id="edge11" class="edge">
<title>Wait for all jobs green&#45;&gt;Push to beta channel</title>
<path fill="none" stroke="#000000" d="M281.3358,-333.3793C264.9497,-308.277 235.3407,-262.9187 216.5181,-234.0841"/>
<polygon fill="#000000" stroke="#000000" points="219.4466,-232.1672 211.0495,-225.7066 213.585,-235.9936 219.4466,-232.1672"/>
</g>
<!-- QA signoff for beta -->
<g id="node12" class="node">
<title>QA signoff for beta</title>
<ellipse fill="none" stroke="#000000" cx="115.241" cy="-135.617" rx="78.9351" ry="18"/>
<text text-anchor="middle" x="115.241" y="-131.417" font-family="Times,serif" font-size="14.00" fill="#000000">QA signoff for beta</text>
</g>
<!-- Push to beta channel&#45;&gt;QA signoff for beta -->
<g id="edge12" class="edge">
<title>Push to beta channel&#45;&gt;QA signoff for beta</title>
<path fill="none" stroke="#000000" d="M178.0443,-189.4484C167.5629,-180.4643 154.769,-169.4982 143.4703,-159.8135"/>
<polygon fill="#000000" stroke="#000000" points="145.432,-156.8853 135.5617,-153.0347 140.8765,-162.2001 145.432,-156.8853"/>
</g>
<!-- Run post&#45;release tasks -->
<g id="node13" class="node">
<title>Run post&#45;release tasks</title>
<polygon fill="none" stroke="#000000" points="353.9345,-153.617 212.5475,-153.617 212.5475,-117.617 353.9345,-117.617 353.9345,-153.617"/>
<text text-anchor="middle" x="283.241" y="-131.417" font-family="Times,serif" font-size="14.00" fill="#000000">Run post&#45;release tasks</text>
</g>
<!-- Push to beta channel&#45;&gt;Run post&#45;release tasks -->
<g id="edge13" class="edge">
<title>Push to beta channel&#45;&gt;Run post&#45;release tasks</title>
<path fill="none" stroke="#000000" d="M220.4378,-189.4484C230.6845,-180.6655 243.1413,-169.9882 254.2507,-160.4659"/>
<polygon fill="#000000" stroke="#000000" points="256.7362,-162.9452 262.051,-153.7798 252.1807,-157.6304 256.7362,-162.9452"/>
</g>
<!-- All done -->
<g id="node14" class="node">
<title>All done</title>
<ellipse fill="none" stroke="#000000" cx="199.241" cy="-40.8085" rx="40.6179" ry="40.6179"/>
<text text-anchor="middle" x="199.241" y="-36.6085" font-family="Times,serif" font-size="14.00" fill="#000000">All done</text>
</g>
<!-- QA signoff for beta&#45;&gt;All done -->
<g id="edge14" class="edge">
<title>QA signoff for beta&#45;&gt;All done</title>
<path fill="none" stroke="#000000" d="M131.0408,-117.7842C140.6549,-106.933 153.3187,-92.6398 165.1213,-79.3185"/>
<polygon fill="#000000" stroke="#000000" points="167.9295,-81.4267 171.9414,-71.6208 162.6901,-76.7846 167.9295,-81.4267"/>
</g>
<!-- Run post&#45;release tasks&#45;&gt;All done -->
<g id="edge15" class="edge">
<title>Run post&#45;release tasks&#45;&gt;All done</title>
<path fill="none" stroke="#000000" d="M267.045,-117.337C257.4802,-106.5415 245.0005,-92.456 233.3588,-79.3163"/>
<polygon fill="#000000" stroke="#000000" points="235.8808,-76.885 226.6295,-71.7212 230.6414,-81.5271 235.8808,-76.885"/>
</g>
</g>
</svg>
